<mxfile host="app.diagrams.net" modified="2023-11-25T00:11:15.756Z" agent="Mozilla/5.0 (Windows NT 10.0; Win64; x64) AppleWebKit/537.36 (KHTML, like Gecko) Chrome/119.0.0.0 Safari/537.36 Edg/119.0.0.0" etag="SPrxvgjjgb3mtv_CqAuo" version="22.1.4" type="google">
  <diagram name="PÃ¡gina-1" id="GZTNxUOlplIGmG4mFYfc">
    <mxGraphModel dx="1066" dy="613" grid="1" gridSize="10" guides="1" tooltips="1" connect="1" arrows="1" fold="1" page="1" pageScale="1" pageWidth="827" pageHeight="1169" math="0" shadow="0">
      <root>
        <mxCell id="0" />
        <mxCell id="1" parent="0" />
        <mxCell id="ZHrYtvedLNoxDCnnnTcj-2" value="" style="swimlane;startSize=0;fontSize=16;" parent="1" vertex="1">
          <mxGeometry x="120" y="40" width="600" height="480" as="geometry">
            <mxRectangle x="180" y="30" width="50" height="40" as="alternateBounds" />
          </mxGeometry>
        </mxCell>
        <mxCell id="ZHrYtvedLNoxDCnnnTcj-11" value="Alarme de Mensalidade" style="text;html=1;align=center;verticalAlign=middle;resizable=0;points=[];autosize=1;strokeColor=none;fillColor=none;fontSize=16;" parent="ZHrYtvedLNoxDCnnnTcj-2" vertex="1">
          <mxGeometry x="65" y="20" width="190" height="30" as="geometry" />
        </mxCell>
        <mxCell id="ZHrYtvedLNoxDCnnnTcj-29" value="Fazer Login" style="ellipse;whiteSpace=wrap;html=1;" parent="ZHrYtvedLNoxDCnnnTcj-2" vertex="1">
          <mxGeometry x="65" y="110" width="140" height="70" as="geometry" />
        </mxCell>
        <mxCell id="ZHrYtvedLNoxDCnnnTcj-33" value="Consultar Mensalidade" style="ellipse;whiteSpace=wrap;html=1;" parent="ZHrYtvedLNoxDCnnnTcj-2" vertex="1">
          <mxGeometry x="100" y="330" width="140" height="70" as="geometry" />
        </mxCell>
        <mxCell id="FsEEi4zjO7c32S1O-Xub-3" value="Verificar Senha" style="ellipse;whiteSpace=wrap;html=1;" parent="ZHrYtvedLNoxDCnnnTcj-2" vertex="1">
          <mxGeometry x="350" y="10" width="140" height="70" as="geometry" />
        </mxCell>
        <mxCell id="FsEEi4zjO7c32S1O-Xub-4" value="Exibir Erro" style="ellipse;whiteSpace=wrap;html=1;" parent="ZHrYtvedLNoxDCnnnTcj-2" vertex="1">
          <mxGeometry x="380" y="110" width="140" height="70" as="geometry" />
        </mxCell>
        <mxCell id="FsEEi4zjO7c32S1O-Xub-17" style="rounded=0;orthogonalLoop=1;jettySize=auto;html=1;exitX=1;exitY=0.25;exitDx=0;exitDy=0;entryX=0;entryY=0.5;entryDx=0;entryDy=0;dashed=1;dashPattern=12 12;" parent="ZHrYtvedLNoxDCnnnTcj-2" source="FsEEi4zjO7c32S1O-Xub-8" target="FsEEi4zjO7c32S1O-Xub-3" edge="1">
          <mxGeometry relative="1" as="geometry" />
        </mxCell>
        <mxCell id="FsEEi4zjO7c32S1O-Xub-8" value="&amp;lt;&amp;lt;incluir&amp;gt;&amp;gt;" style="text;html=1;strokeColor=none;fillColor=none;align=center;verticalAlign=middle;whiteSpace=wrap;rounded=0;" parent="ZHrYtvedLNoxDCnnnTcj-2" vertex="1">
          <mxGeometry x="240" y="80" width="50" height="30" as="geometry" />
        </mxCell>
        <mxCell id="FsEEi4zjO7c32S1O-Xub-9" value="" style="rounded=0;orthogonalLoop=1;jettySize=auto;html=1;exitX=1;exitY=0;exitDx=0;exitDy=0;entryX=0.014;entryY=0.657;entryDx=0;entryDy=0;entryPerimeter=0;endArrow=none;endFill=0;dashed=1;dashPattern=12 12;" parent="ZHrYtvedLNoxDCnnnTcj-2" source="ZHrYtvedLNoxDCnnnTcj-29" target="FsEEi4zjO7c32S1O-Xub-8" edge="1">
          <mxGeometry relative="1" as="geometry">
            <mxPoint x="454" y="120" as="sourcePoint" />
            <mxPoint x="512" y="106" as="targetPoint" />
          </mxGeometry>
        </mxCell>
        <mxCell id="FsEEi4zjO7c32S1O-Xub-18" style="rounded=0;orthogonalLoop=1;jettySize=auto;html=1;exitX=0;exitY=0.25;exitDx=0;exitDy=0;entryX=1;entryY=0.5;entryDx=0;entryDy=0;dashed=1;dashPattern=12 12;" parent="ZHrYtvedLNoxDCnnnTcj-2" source="FsEEi4zjO7c32S1O-Xub-14" target="ZHrYtvedLNoxDCnnnTcj-29" edge="1">
          <mxGeometry relative="1" as="geometry" />
        </mxCell>
        <mxCell id="FsEEi4zjO7c32S1O-Xub-19" style="rounded=0;orthogonalLoop=1;jettySize=auto;html=1;exitX=1;exitY=0.75;exitDx=0;exitDy=0;entryX=0;entryY=0.5;entryDx=0;entryDy=0;endArrow=none;endFill=0;dashed=1;dashPattern=12 12;" parent="ZHrYtvedLNoxDCnnnTcj-2" source="FsEEi4zjO7c32S1O-Xub-14" target="FsEEi4zjO7c32S1O-Xub-4" edge="1">
          <mxGeometry relative="1" as="geometry" />
        </mxCell>
        <mxCell id="FsEEi4zjO7c32S1O-Xub-14" value="&amp;lt;&amp;lt;estender&amp;gt;&amp;gt;" style="text;html=1;strokeColor=none;fillColor=none;align=center;verticalAlign=middle;whiteSpace=wrap;rounded=0;" parent="ZHrYtvedLNoxDCnnnTcj-2" vertex="1">
          <mxGeometry x="270" y="140" width="50" height="30" as="geometry" />
        </mxCell>
        <mxCell id="ZHrYtvedLNoxDCnnnTcj-35" style="rounded=0;orthogonalLoop=1;jettySize=auto;html=1;exitX=1;exitY=0.3333333333333333;exitDx=0;exitDy=0;exitPerimeter=0;entryX=0;entryY=0.5;entryDx=0;entryDy=0;endArrow=none;endFill=0;" parent="1" source="ZHrYtvedLNoxDCnnnTcj-19" target="ZHrYtvedLNoxDCnnnTcj-29" edge="1">
          <mxGeometry relative="1" as="geometry" />
        </mxCell>
        <mxCell id="ZHrYtvedLNoxDCnnnTcj-36" style="rounded=0;orthogonalLoop=1;jettySize=auto;html=1;exitX=1;exitY=0.3333333333333333;exitDx=0;exitDy=0;exitPerimeter=0;endArrow=none;endFill=0;" parent="1" source="ZHrYtvedLNoxDCnnnTcj-19" target="ZHrYtvedLNoxDCnnnTcj-33" edge="1">
          <mxGeometry relative="1" as="geometry" />
        </mxCell>
        <mxCell id="ZHrYtvedLNoxDCnnnTcj-19" value="Aluno" style="shape=umlActor;verticalLabelPosition=bottom;verticalAlign=top;html=1;outlineConnect=0;" parent="1" vertex="1">
          <mxGeometry x="30" y="200" width="60" height="120" as="geometry" />
        </mxCell>
        <mxCell id="FsEEi4zjO7c32S1O-Xub-1" style="rounded=0;orthogonalLoop=1;jettySize=auto;html=1;exitX=0;exitY=0.3333333333333333;exitDx=0;exitDy=0;exitPerimeter=0;entryX=1;entryY=0.5;entryDx=0;entryDy=0;endArrow=none;endFill=0;" parent="1" source="ZHrYtvedLNoxDCnnnTcj-20" target="ZHrYtvedLNoxDCnnnTcj-33" edge="1">
          <mxGeometry relative="1" as="geometry" />
        </mxCell>
        <mxCell id="ZHrYtvedLNoxDCnnnTcj-20" value="DB &lt;br&gt;Faculdade" style="shape=umlActor;verticalLabelPosition=bottom;verticalAlign=top;html=1;outlineConnect=0;" parent="1" vertex="1">
          <mxGeometry x="750" y="200" width="60" height="120" as="geometry" />
        </mxCell>
        <mxCell id="FsEEi4zjO7c32S1O-Xub-2" style="edgeStyle=orthogonalEdgeStyle;rounded=0;orthogonalLoop=1;jettySize=auto;html=1;exitX=0.5;exitY=1;exitDx=0;exitDy=0;" parent="1" source="ZHrYtvedLNoxDCnnnTcj-2" target="ZHrYtvedLNoxDCnnnTcj-2" edge="1">
          <mxGeometry relative="1" as="geometry" />
        </mxCell>
      </root>
    </mxGraphModel>
  </diagram>
</mxfile>
